<svg width="300" height="300" xmlns="http://www.w3.org/2000/svg" xmlns:xlink="http://www.w3.org/1999/xlink" overflow="hidden"><g><rect x="0" y="0" width="300" height="300" fill="#FFFFFF"/><rect x="141.5" y="56.5001" width="18" height="188" stroke="#000000" stroke-width="1.33333" stroke-miterlimit="8" fill="#FFFFFF"/><path d="M206.167 63.1668 206.167 238.81 204.833 238.81 204.833 63.1668ZM201.5 64.5001 205.5 56.5001 209.5 64.5001ZM209.5 237.476 205.5 245.476 201.5 237.476Z"/><text font-family="MS Gothic,MS Gothic_MSFontService,sans-serif" font-weight="400" font-size="24" transform="translate(184.231 160)">B</text><path d="M148.167 263.833 153.731 263.833 153.731 265.167 148.167 265.167ZM149.5 268.5 141.5 264.5 149.5 260.5ZM152.398 260.5 160.398 264.5 152.398 268.5Z"/><text font-family="MS Gothic,MS Gothic_MSFontService,sans-serif" font-weight="400" font-size="24" transform="translate(143.941 289)">t</text><path d="M20.5001 259.833 32.7522 259.833 32.7522 261.167 20.5 261.167ZM31.4189 256.5 39.4189 260.5 31.4189 264.5Z"/><path d="M19.8334 260.419 19.8335 248.167 21.1668 248.167 21.1667 260.419ZM16.5001 249.5 20.5002 241.5 24.5001 249.5Z"/><text font-family="MS Gothic,MS Gothic_MSFontService,sans-serif" font-weight="400" font-size="24" transform="translate(44.7197 269)">X</text><text font-family="MS Gothic,MS Gothic_MSFontService,sans-serif" font-weight="400" font-size="24" transform="translate(14.3079 237)">Y</text></g></svg>