<svg width="300" height="300" xmlns="http://www.w3.org/2000/svg" xmlns:xlink="http://www.w3.org/1999/xlink" overflow="hidden"><g><rect x="0" y="0" width="300" height="300" fill="#FFFFFF"/><rect x="141.5" y="56.5001" width="18" height="188" stroke="#000000" stroke-width="1.33333" stroke-miterlimit="8" fill="#FFFFFF"/><rect x="93.5001" y="56.5001" width="114" height="26" stroke="#000000" stroke-width="1.33333" stroke-miterlimit="8" fill="#FFFFFF"/><rect x="93.5001" y="218.5" width="114" height="26" stroke="#000000" stroke-width="1.33333" stroke-miterlimit="8" fill="#FFFFFF"/><path d="M255.167 63.1668 255.167 238.81 253.833 238.81 253.833 63.1668ZM250.5 64.5001 254.5 56.5001 258.5 64.5001ZM258.5 237.476 254.5 245.476 250.5 237.476Z"/><text font-family="MS Gothic,MS Gothic_MSFontService,sans-serif" font-weight="400" font-size="24" transform="translate(233.813 160)">A</text><path d="M100.167 279.833 200.219 279.833 200.219 281.167 100.167 281.167ZM101.5 284.5 93.5001 280.5 101.5 276.5ZM198.886 276.5 206.886 280.5 198.886 284.5Z"/><text font-family="MS Gothic,MS Gothic_MSFontService,sans-serif" font-weight="400" font-size="24" transform="translate(143.941 270)">B</text><path d="M122.5 124.833 134.752 124.833 134.752 126.167 122.5 126.167ZM133.419 121.5 141.419 125.5 133.419 129.5Z"/><path d="M3.69955e-06-0.666667 12.2522-0.666599 12.2522 0.666735-3.69955e-06 0.666667ZM10.9189-3.99994 18.9188 0.000104987 10.9188 4.00006Z" transform="matrix(-1 0 0 1 178.419 125.5)"/><text font-family="MS Gothic,MS Gothic_MSFontService,sans-serif" font-weight="400" font-size="24" transform="translate(80.3581 136)">ｔ</text><text font-family="MS Gothic,MS Gothic_MSFontService,sans-serif" font-weight="400" font-size="24" transform="translate(104.358 136)">1</text><path d="M3.69955e-06-0.666667 12.2522-0.666599 12.2522 0.666735-3.69955e-06 0.666667ZM10.9189-3.99994 18.9188 0.000104987 10.9188 4.00006Z" transform="matrix(1.83697e-16 1 1 -1.83697e-16 188.5 37.5001)"/><path d="M187.833 101.419 187.833 89.1667 189.167 89.1667 189.167 101.419ZM184.5 90.5 188.5 82.5001 192.5 90.5001Z"/><text font-family="MS Gothic,MS Gothic_MSFontService,sans-serif" font-weight="400" font-size="24" transform="translate(167.115 30)">ｔ</text><text font-family="MS Gothic,MS Gothic_MSFontService,sans-serif" font-weight="400" font-size="24" transform="translate(191.115 30)">2</text><path d="M20.5001 259.833 32.7522 259.833 32.7522 261.167 20.5 261.167ZM31.4189 256.5 39.4189 260.5 31.4189 264.5Z"/><path d="M19.8334 260.419 19.8335 248.167 21.1668 248.167 21.1667 260.419ZM16.5001 249.5 20.5002 241.5 24.5001 249.5Z"/><text font-family="MS Gothic,MS Gothic_MSFontService,sans-serif" font-weight="400" font-size="24" transform="translate(44.7197 269)">X</text><text font-family="MS Gothic,MS Gothic_MSFontService,sans-serif" font-weight="400" font-size="24" transform="translate(14.3079 237)">Y</text></g></svg>