<svg width="300" height="300" xmlns="http://www.w3.org/2000/svg" xmlns:xlink="http://www.w3.org/1999/xlink" overflow="hidden"><g><rect x="0" y="0" width="300" height="300" fill="#FFFFFF"/><path d="M56.5001 150.5C56.5001 98.5853 98.5853 56.5001 150.5 56.5001 202.415 56.5001 244.5 98.5853 244.5 150.5 244.5 202.415 202.415 244.5 150.5 244.5 98.5853 244.5 56.5001 202.415 56.5001 150.5Z" stroke="#000000" stroke-width="1.33333" stroke-miterlimit="8" fill="#FFFFFF" fill-rule="evenodd"/><path d="M75.5001 150C75.5001 108.303 109.303 74.5001 151 74.5001 192.698 74.5001 226.5 108.303 226.5 150 226.5 191.698 192.698 225.5 151 225.5 109.303 225.5 75.5001 191.698 75.5001 150Z" stroke="#000000" stroke-width="1.33333" stroke-miterlimit="8" fill="#FFFFFF" fill-rule="evenodd"/><path d="M63.1668 275.833 238.81 275.833 238.81 277.167 63.1668 277.167ZM64.5001 280.5 56.5001 276.5 64.5001 272.5ZM237.476 272.5 245.476 276.5 237.476 280.5Z"/><text font-family="MS Gothic,MS Gothic_MSFontService,sans-serif" font-weight="400" font-size="24" transform="translate(143.941 270)">D</text><path d="M38.5001 154.833 50.7522 154.833 50.7522 156.167 38.5 156.167ZM49.4189 151.5 57.4189 155.5 49.4189 159.5Z"/><path d="M3.69955e-06-0.666667 12.2522-0.666599 12.2522 0.666735-3.69955e-06 0.666667ZM10.9189-3.99994 18.9188 0.000104987 10.9188 4.00006Z" transform="matrix(-1 0 0 1 94.4189 155.5)"/><text font-family="MS Gothic,MS Gothic_MSFontService,sans-serif" font-weight="400" font-size="24" transform="translate(13.7643 160)">ｔ</text><path d="M20.5001 259.833 32.7522 259.833 32.7522 261.167 20.5 261.167ZM31.4189 256.5 39.4189 260.5 31.4189 264.5Z"/><path d="M19.8334 260.419 19.8335 248.167 21.1668 248.167 21.1667 260.419ZM16.5001 249.5 20.5002 241.5 24.5001 249.5Z"/><text font-family="MS Gothic,MS Gothic_MSFontService,sans-serif" font-weight="400" font-size="24" transform="translate(44.7197 269)">X</text><text font-family="MS Gothic,MS Gothic_MSFontService,sans-serif" font-weight="400" font-size="24" transform="translate(14.3079 237)">Y</text></g></svg>