<svg width="300" height="300" xmlns="http://www.w3.org/2000/svg" xmlns:xlink="http://www.w3.org/1999/xlink" overflow="hidden"><g><rect x="0" y="0" width="300" height="300" fill="#FFFFFF"/><path d="M56.5001 150.5C56.5001 98.5853 98.5853 56.5001 150.5 56.5001 202.415 56.5001 244.5 98.5853 244.5 150.5 244.5 202.415 202.415 244.5 150.5 244.5 98.5853 244.5 56.5001 202.415 56.5001 150.5Z" stroke="#000000" stroke-width="1.33333" stroke-miterlimit="8" fill="#FFFFFF" fill-rule="evenodd"/><path d="M63.1668 275.833 238.81 275.833 238.81 277.167 63.1668 277.167ZM64.5001 280.5 56.5001 276.5 64.5001 272.5ZM237.476 272.5 245.476 276.5 237.476 280.5Z"/><text font-family="MS Gothic,MS Gothic_MSFontService,sans-serif" font-weight="400" font-size="24" transform="translate(143.941 270)">R</text><path d="M20.5001 259.833 32.7522 259.833 32.7522 261.167 20.5 261.167ZM31.4189 256.5 39.4189 260.5 31.4189 264.5Z"/><path d="M19.8334 260.419 19.8335 248.167 21.1668 248.167 21.1667 260.419ZM16.5001 249.5 20.5002 241.5 24.5001 249.5Z"/><text font-family="MS Gothic,MS Gothic_MSFontService,sans-serif" font-weight="400" font-size="24" transform="translate(44.7197 269)">Y</text><text font-family="MS Gothic,MS Gothic_MSFontService,sans-serif" font-weight="400" font-size="24" transform="translate(14.3079 237)">Z</text></g></svg>